<svg id="visual" 
     viewBox="0 0 900 600" 
     width="900" height="600" 
     xmlns="http://www.w3.org/2000/svg" 
     xmlns:xlink="http://www.w3.org/1999/xlink" 
     version="1.1">
     <path d="M0 49L60 31L120 25L180 43L240 25L300 31L360 0L420 37L480 31L540 19L600 43L660 49L720 7L780 25L840 19L900 43L900 0L840 0L780 0L720 0L660 0L600 0L540 0L480 0L420 0L360 0L300 0L240 0L180 0L120 0L60 0L0 0Z" fill="#e3b374"></path>
     <path d="M0 91L60 85L120 67L180 73L240 37L300 43L360 67L420 73L480 43L540 61L600 73L660 97L720 13L780 73L840 43L900 67L900 41L840 17L780 23L720 5L660 47L600 41L540 17L480 29L420 35L360 0L300 29L240 23L180 41L120 23L60 29L0 47Z" fill="#dbac6e"></path>
     <path d="M0 115L60 103L120 145L180 139L240 43L300 97L360 121L420 103L480 109L540 85L600 139L660 163L720 85L780 103L840 49L900 103L900 65L840 41L780 71L720 11L660 95L600 71L540 59L480 41L420 71L360 65L300 41L240 35L180 71L120 65L60 83L0 89Z" fill="#d4a567"></path>
     <path d="M0 163L60 109L120 151L180 193L240 55L300 127L360 121L420 157L480 139L540 85L600 157L660 187L720 115L780 151L840 55L900 139L900 101L840 47L780 101L720 83L660 161L600 137L540 83L480 107L420 101L360 119L300 95L240 41L180 137L120 143L60 101L0 113Z" fill="#cc9e61"></path>
     <path d="M0 163L60 145L120 163L180 211L240 67L300 205L360 133L420 265L480 205L540 127L600 187L660 241L720 151L780 199L840 115L900 163L900 137L840 53L780 149L720 113L660 185L600 155L540 83L480 137L420 155L360 119L300 125L240 53L180 191L120 149L60 107L0 161Z" fill="#c5975b"></path>
     <path d="M0 223L60 151L120 187L180 283L240 73L300 247L360 193L420 265L480 211L540 139L600 199L660 283L720 211L780 265L840 139L900 205L900 161L840 113L780 197L720 149L660 239L600 185L540 125L480 203L420 263L360 131L300 203L240 65L180 209L120 161L60 143L0 161Z" fill="#be9055"></path>
     <path d="M0 253L60 193L120 199L180 289L240 109L300 265L360 211L420 301L480 253L540 157L600 229L660 283L720 241L780 289L840 187L900 247L900 203L840 137L780 263L720 209L660 281L600 197L540 137L480 209L420 263L360 191L300 245L240 71L180 281L120 185L60 149L0 221Z" fill="#b68a4f"></path>
     <path d="M0 421L60 295L120 307L180 403L240 187L300 319L360 361L420 481L480 367L540 277L600 415L660 301L720 367L780 373L840 217L900 307L900 245L840 185L780 287L720 239L660 281L600 227L540 155L480 251L420 299L360 209L300 263L240 107L180 287L120 197L60 191L0 251Z" fill="#af8349"></path>
     <path d="M0 451L60 337L120 319L180 409L240 229L300 373L360 379L420 523L480 367L540 289L600 427L660 331L720 415L780 421L840 229L900 343L900 305L840 215L780 371L720 365L660 299L600 413L540 275L480 365L420 479L360 359L300 317L240 185L180 401L120 305L60 293L0 419Z" fill="#a87c43"></path>
     <path d="M0 481L60 547L120 505L180 457L240 403L300 571L360 445L420 523L480 493L540 457L600 451L660 511L720 505L780 499L840 439L900 577L900 341L840 227L780 419L720 413L660 329L600 425L540 287L480 365L420 521L360 377L300 371L240 227L180 407L120 317L60 335L0 449Z" fill="#a1763d"></path>
     <path d="M0 535L60 595L120 571L180 517L240 433L300 601L360 451L420 547L480 583L540 553L600 535L660 523L720 559L780 529L840 481L900 601L900 575L840 437L780 497L720 503L660 509L600 449L540 455L480 491L420 521L360 443L300 569L240 401L180 455L120 503L60 545L0 479Z" fill="#9a6f38"></path>
     <path d="M0 601L60 601L120 601L180 601L240 601L300 601L360 601L420 601L480 601L540 601L600 601L660 601L720 601L780 601L840 601L900 601L900 599L840 479L780 527L720 557L660 521L600 533L540 551L480 581L420 545L360 449L300 599L240 431L180 515L120 569L60 593L0 533Z" fill="#936932"></path>
</svg>